<?xml version="1.0" encoding="UTF-8" standalone="no"?>
<svg
   xmlns:dc="http://purl.org/dc/elements/1.1/"
   xmlns:cc="http://creativecommons.org/ns#"
   xmlns:rdf="http://www.w3.org/1999/02/22-rdf-syntax-ns#"
   xmlns:svg="http://www.w3.org/2000/svg"
   xmlns="http://www.w3.org/2000/svg"
   id="svg8"
   version="1.1"
   viewBox="0 0 800 599.99999"
   height="600mm"
   width="800mm">
  <defs
     id="defs2" />
  <metadata
     id="metadata5">
    <rdf:RDF>
      <cc:Work
         rdf:about="">
        <dc:format>image/svg+xml</dc:format>
        <dc:type
           rdf:resource="http://purl.org/dc/dcmitype/StillImage" />
        <dc:title></dc:title>
      </cc:Work>
    </rdf:RDF>
  </metadata>
  <g
     transform="translate(-27.78125,-114.03545)"
     id="layer1">
    <rect
       y="114.03545"
       x="27.78125"
       height="600"
       width="800"
       id="rect918"
       style="fill:#55a44e;fill-opacity:1;stroke:none;stroke-width:132.133;stroke-opacity:0.380282" />
    <text
       x="240.49339"
       y="594.58832"
       id="text835"
       style="font-style:normal;font-variant:normal;font-weight:bold;font-stretch:normal;font-size:125.279px;line-height:1.25;font-family:Gambetta;-inkscape-font-specification:'Gambetta, Bold';font-variant-ligatures:normal;font-variant-caps:normal;font-variant-numeric:normal;font-variant-east-asian:normal;letter-spacing:0px;word-spacing:0px;fill:#ede9a3;fill-opacity:1;stroke-width:10.1994"
       xml:space="preserve"><tspan
         style="font-style:normal;font-variant:normal;font-weight:bold;font-stretch:normal;font-size:125.279px;font-family:Gambetta;-inkscape-font-specification:'Gambetta, Bold';font-variant-ligatures:normal;font-variant-caps:normal;font-variant-numeric:normal;font-variant-east-asian:normal;fill:#ede9a3;fill-opacity:1;stroke-width:10.1994"
         y="594.58832"
         x="240.49339"
         id="tspan833">Pullulant</tspan></text>
    <path
       d="m 487.14674,239.84933 c -42.86777,-0.22355 -83.1293,4.03516 -115.81442,12.20644 -81.87023,20.46752 -132.12914,66.8095 -160.38824,168.27638 C 309.59532,325.89984 423.0853,312.53862 585.35695,312.53862 391.41758,336.78107 300.73893,342.74367 224.17176,443.49298 147.60461,544.24225 174.51419,651.93261 174.51419,651.93261 l 48.48483,-24.24231 c 0,0 -19.5503,-59.08765 -5.73861,-141.66686 111.45657,20.63943 197.02789,21.81458 265.73858,-1.08903 72.72726,-24.24244 223.57013,-148.15334 272.0549,-172.39581 -66.66664,-50.00004 -173.5982,-72.19598 -267.90715,-72.68927 z"
       style="fill:#ede9a3;fill-opacity:1;stroke:none;stroke-width:4.84848px;stroke-linecap:butt;stroke-linejoin:miter;stroke-opacity:1"
       id="path916" />
    <path
       d="m 120.83241,268.61282 c -4.57581,19.43828 -6.84434,38.16139 -6.54601,53.85311 0.7473,39.30487 16.5414,66.95873 59.65674,90.37856 -32.57549,-54.64308 -26.79619,-107.56147 -9.85984,-181.23196 -9.23577,90.57764 -15.99293,132.36763 21.7553,177.644 8.45104,8.53974 16.74971,12.76505 16.74971,12.76505 21.00303,-48.4465 32.30526,-92.36121 29.07869,-125.94594 -3.41527,-35.54803 -43.92655,-116.96254 -49.87213,-141.50459 -29.65773,25.04777 -50.89521,71.27748 -60.96227,114.04179 z"
       style="fill:#ede9a3;fill-opacity:1;stroke:none;stroke-width:2.25861px;stroke-linecap:butt;stroke-linejoin:miter;stroke-opacity:1"
       id="path916-0-1" />
    <rect
       y="615.56909"
       x="245.96306"
       height="36.363514"
       width="533.33331"
       id="rect1103"
       style="fill:#ede9a3;fill-opacity:1;stroke:none;stroke-width:24.8444;stroke-opacity:0.380282" />
    <text
       id="text1101"
       y="648.61041"
       x="262.41742"
       style="font-style:normal;font-variant:normal;font-weight:bold;font-stretch:normal;font-size:44.4922px;line-height:1.25;font-family:Gambetta;-inkscape-font-specification:'Gambetta, Bold';font-variant-ligatures:normal;font-variant-caps:normal;font-variant-numeric:normal;font-variant-east-asian:normal;letter-spacing:0px;word-spacing:0px;stroke-width:2.37429"
       xml:space="preserve"><tspan
         style="font-style:normal;font-variant:normal;font-weight:bold;font-stretch:normal;font-size:44.4922px;font-family:Gambetta;-inkscape-font-specification:'Gambetta, Bold';font-variant-ligatures:normal;font-variant-caps:normal;font-variant-numeric:normal;font-variant-east-asian:normal;fill:#a38353;fill-opacity:1;stroke-width:2.37429"
         y="648.61041"
         x="262.41742"
         id="tspan1099">Twitter: @mafumafuultu</tspan></text>
  </g>
</svg>
